<svg xmlns="http://www.w3.org/2000/svg" viewBox="0 0 1200 630" role="img" aria-label="Vimal Kumar Yadav portfolio preview">
  <defs>
    <linearGradient id="bg" x1="0" y1="0" x2="1200" y2="630" gradientUnits="userSpaceOnUse">
      <stop offset="0" stop-color="#020617"/>
      <stop offset="0.5" stop-color="#0f172a"/>
      <stop offset="1" stop-color="#111827"/>
    </linearGradient>
    <linearGradient id="accent" x1="150" y1="120" x2="1040" y2="520" gradientUnits="userSpaceOnUse">
      <stop offset="0" stop-color="#38bdf8"/>
      <stop offset="0.5" stop-color="#14b8a6"/>
      <stop offset="1" stop-color="#f59e0b"/>
    </linearGradient>
  </defs>
  <rect width="1200" height="630" fill="url(#bg)"/>
  <circle cx="930" cy="135" r="190" fill="#0ea5e9" opacity="0.13"/>
  <circle cx="1040" cy="500" r="220" fill="#f59e0b" opacity="0.09"/>
  <path d="M140 130h920M140 500h920" stroke="url(#accent)" stroke-width="6" stroke-linecap="round" opacity="0.65"/>
  <g transform="translate(145 185)">
    <rect width="180" height="180" rx="42" fill="#020617" stroke="url(#accent)" stroke-width="6"/>
    <path d="M42 58l34 68 34-68" fill="none" stroke="#e5f6ff" stroke-width="16" stroke-linecap="round" stroke-linejoin="round"/>
    <path d="M112 58l26 34 26-34M138 92v38" fill="none" stroke="#7dd3fc" stroke-width="16" stroke-linecap="round" stroke-linejoin="round"/>
  </g>
  <text x="380" y="255" fill="#f8fafc" font-family="Inter, Arial, sans-serif" font-size="76" font-weight="800">Vimal Kumar Yadav</text>
  <text x="384" y="330" fill="#7dd3fc" font-family="Inter, Arial, sans-serif" font-size="36" font-weight="700">Backend Engineer · Systems Builder</text>
  <text x="384" y="392" fill="#cbd5e1" font-family="Inter, Arial, sans-serif" font-size="30">Microservices · Real-time Systems · CI/CD · Rust/Linux · AI Workflows</text>
  <g stroke="url(#accent)" stroke-width="4" fill="none" opacity="0.55">
    <path d="M392 455h120l40-32h118l44 32h132"/>
    <circle cx="392" cy="455" r="9" fill="#38bdf8"/>
    <circle cx="552" cy="423" r="9" fill="#14b8a6"/>
    <circle cx="714" cy="455" r="9" fill="#f59e0b"/>
    <circle cx="846" cy="455" r="9" fill="#38bdf8"/>
  </g>
</svg>
